<?xml version="1.0" encoding="UTF-8" standalone="no"?>
<!-- Created with Inkscape (http://www.inkscape.org/) -->

<svg
   xmlns:dc="http://purl.org/dc/elements/1.1/"
   xmlns:cc="http://creativecommons.org/ns#"
   xmlns:rdf="http://www.w3.org/1999/02/22-rdf-syntax-ns#"
   xmlns:svg="http://www.w3.org/2000/svg"
   xmlns="http://www.w3.org/2000/svg"
   xmlns:sodipodi="http://sodipodi.sourceforge.net/DTD/sodipodi-0.dtd"
   xmlns:inkscape="http://www.inkscape.org/namespaces/inkscape"
   id="svg3336"
   version="1.1"
   inkscape:version="0.91 r13725"
   xml:space="preserve"
   width="990"
   height="765"
   viewBox="0 0 990 765"
   sodipodi:docname="mox logo - FINAL-1EPSbishop.svg"><metadata
     id="metadata3342"><rdf:RDF><cc:Work
         rdf:about=""><dc:format>image/svg+xml</dc:format><dc:type
           rdf:resource="http://purl.org/dc/dcmitype/StillImage" /><dc:title></dc:title></cc:Work></rdf:RDF></metadata><defs
     id="defs3340"><clipPath
       clipPathUnits="userSpaceOnUse"
       id="clipPath3350"><path
         d="M 0,0 792,0 792,612 0,612 0,0 Z"
         id="path3352"
         inkscape:connector-curvature="0" /></clipPath></defs><sodipodi:namedview
     pagecolor="#ffffff"
     bordercolor="#666666"
     borderopacity="1"
     objecttolerance="10"
     gridtolerance="10"
     guidetolerance="10"
     inkscape:pageopacity="0"
     inkscape:pageshadow="2"
     inkscape:window-width="1600"
     inkscape:window-height="837"
     id="namedview3338"
     showgrid="false"
     inkscape:zoom="0.87320261"
     inkscape:cx="495"
     inkscape:cy="382.5"
     inkscape:window-x="-8"
     inkscape:window-y="-8"
     inkscape:window-maximized="1"
     inkscape:current-layer="g3344" /><g
     id="g3344"
     inkscape:groupmode="layer"
     inkscape:label="mox logo - FINAL-1"
     transform="matrix(1.25,0,0,-1.25,0,765)"><g
       id="g3346"><g
         id="g3348"
         clip-path="url(#clipPath3350)"><g
           id="g3354"
           transform="translate(719.291,247.5938)"><path
             d="m 0,0 c -34.783,23.174 -40.768,28.602 -40.768,28.602 0,0 18.751,9.313 50.429,32.756 31.677,23.442 45.013,34.924 45.013,34.924 0,0 -14.772,42.836 -43.717,76.126 -28.944,33.291 -69.562,49.524 -69.562,49.524 0,0 -3.055,-22.775 -23.95,-54.556 -25.37,-38.585 -33.125,-43.432 -33.125,-43.432 0,0 -12.979,16.661 -32.614,48.728 -16.051,26.219 -21.402,43.963 -21.402,43.963 0,0 -40.523,-12.885 -69.818,-40.519 -5.021,-4.737 -9.598,-9.775 -13.754,-14.867 43.955,-23.195 74.411,-68.523 76.539,-121.155 23.904,19.573 43.589,36.786 43.589,36.786 l -105.548,85.37 c 0,0 6.985,8.537 20.178,18.625 19.359,14.804 43.715,23.048 43.715,23.048 0,0 5.938,-15.767 25.481,-45.023 19.545,-29.252 32.106,-49.258 32.106,-49.258 0,0 12.068,12.317 37.435,46.646 25.367,34.326 27.103,52.767 27.103,52.767 0,0 29.036,-11.67 56.155,-42.864 27.119,-31.192 40.324,-68.357 40.324,-68.357 0,0 -14.557,-11.407 -44.238,-33.371 C -30.112,42.497 -51.47,30.19 -51.47,30.19 c 0,0 8.178,-10.596 40.768,-32.308 32.591,-21.715 56.568,-29.133 56.568,-29.133 0,0 -9.855,-33.261 -38.221,-61.972 -28.367,-28.709 -59.295,-46.426 -59.295,-46.426 0,0 -11.923,11.458 -36.477,44.237 -24.554,32.78 -33.159,49.861 -33.159,49.861 0,0 -5.705,-16.205 -32.612,-54.027 -25.699,-36.12 -37.541,-47.526 -37.541,-47.526 0,0 -32.981,15.32 -59.624,49.786 -1.038,1.343 -2.031,2.691 -3.003,4.039 -2.68,-1.393 -5.411,-2.7 -8.186,-3.927 1.573,-2.264 3.217,-4.515 4.939,-6.742 28.434,-36.781 69.847,-55.879 69.847,-55.879 0,0 11.193,9.937 38.028,48.893 24.06,34.924 30.268,46.566 30.268,46.566 0,0 6.389,-11.579 32.596,-46.566 26.205,-34.982 33.066,-43.236 33.066,-43.236 0,0 40.287,25.715 70.563,56.357 30.273,30.641 40.529,70.8 40.529,70.8 0,0 -22.803,3.841 -57.584,27.013"
             style="fill:#000000;fill-opacity:1;fill-rule:nonzero;stroke:none"
             id="path3356"
             inkscape:connector-curvature="0" /></g><g
           id="g3358"
           transform="translate(494.0693,406.1362)"><path
             d="m 0,0 c 23.912,22.557 47.904,30.752 47.904,30.752 0,0 13.181,-28.721 30.208,-54.208 17.026,-25.487 31.044,-38.804 31.044,-38.804 0,0 12.453,9.288 34.553,39.196 22.098,29.906 32.613,57.112 32.613,57.112 0,0 25.296,-10.168 48.923,-37.343 23.628,-27.175 31.595,-57.113 31.595,-57.113 0,0 -21.024,-17.107 -46.882,-36.243 -25.861,-19.137 -47.253,-30.801 -47.253,-30.801 0,0 10.703,-15.084 39.098,-34.001 28.392,-18.918 59.115,-32.95 59.115,-32.95 0,0 -10.96,-30.998 -35.673,-56.012 -24.713,-25.014 -48.923,-38.44 -48.923,-38.44 0,0 -18.356,18.667 -39.746,47.226 -21.393,28.558 -34.405,50.538 -34.405,50.538 0,0 -2.288,-15.392 -25.731,-48.34 -22.388,-31.47 -46.881,-54.915 -46.881,-54.915 0,0 -25.247,10.365 -48.457,40.391 -23.212,30.031 -24.926,54.062 -24.926,54.062 0,0 21.98,9.469 49.94,30.752 27.957,21.284 39.747,38.44 39.747,38.44 0,0 -13.38,6.417 -38.727,29.658 -25.35,23.236 -45.437,52.752 -45.437,52.752 0,0 14.39,25.732 38.301,48.291"
             style="fill:#000000;fill-opacity:1;fill-rule:nonzero;stroke:none"
             id="path3360"
             inkscape:connector-curvature="0" /></g><g
           id="g3362"
           transform="translate(315.7529,176.126)"><path
             d="m 0,0 c 13.229,-40.245 25.155,-53.952 25.155,-53.952 0,0 -15.128,-21.114 -46.566,-32.078 -31.436,-10.963 -76.056,-2.589 -76.056,-2.589 0,0 7.054,40.863 0.517,82.265 -4.656,29.493 -10.348,48.119 -10.348,48.119 l -23.283,-43.461 -19.143,34.666 c 0,0 -2.613,-22.974 -1.035,-41.908 3.622,-43.461 9.313,-65.193 9.313,-65.193 0,0 -47.307,-14.01 -75.539,-10.864 -28.231,3.142 -60.535,23.282 -60.535,23.282 0,0 20.563,63.057 23.8,151.595 3.238,88.536 -9.313,175.397 -9.313,175.397 0,0 36.235,-20.336 71.401,-59.501 35.165,-39.165 44.495,-54.844 44.495,-54.844 0,0 18.703,45.08 49.669,86.405 31.02,41.398 63.121,52.257 63.121,52.257 0,0 -2.074,-41.994 2.579,-105.04 2.023,3.179 4.173,6.269 6.439,9.266 -3.787,68.405 0.814,114.918 0.814,114.918 0,0 -45.181,-23.469 -77.609,-66.744 -32.369,-43.199 -46.047,-78.126 -46.047,-78.126 0,0 -15.144,21.121 -51.903,62.063 -36.76,40.94 -75.376,57.972 -75.376,57.972 0,0.001 18.905,-94.228 15.522,-186.779 -3.385,-92.548 -29.492,-163.496 -29.491,-163.496 0,0 36.917,-21.623 66.226,-26.387 36.938,-6.002 93.13,13.452 93.13,13.452 0,0 -7.628,12.988 -12.935,62.087 -2.069,19.144 -0.517,24.834 -0.517,24.834 l 14.703,-23.881 19.445,39.404 c 0,0 4.257,-11.876 7.243,-42.943 4.14,-43.048 -6.209,-75.023 -6.209,-75.023 0,0 37.253,-11.383 86.922,-0.517 34,7.437 56.912,40.874 56.912,40.874 0,0 -11.135,12.377 -24.084,46.413 C 7.474,-5.558 3.662,-2.87 0,0"
             style="fill:#000000;fill-opacity:1;fill-rule:nonzero;stroke:none"
             id="path3364"
             inkscape:connector-curvature="0" /></g><g
           id="g3366"
           transform="translate(262.2681,285.9287)"><path
             d="m 0,0 c 0,21.146 4.716,41.187 13.139,59.143 -4.407,60.9 -2.277,105.128 -2.277,105.128 0,0 -37.655,-22.486 -63.123,-60.018 -25.468,-37.532 -39.322,-81.747 -39.322,-81.748 0,0 -16.768,28.784 -47.6,63.122 -30.832,34.339 -63.121,54.844 -63.121,54.844 0,0.001 14.221,-85.869 11.383,-163.496 -2.839,-77.626 -22.767,-141.765 -22.767,-141.765 0,0 28.022,-16.906 52.775,-19.661 24.752,-2.756 61.052,6.209 61.052,6.209 0,0 -3.634,21.731 -5.174,63.122 -1.539,41.39 4.139,68.296 4.139,68.296 l 22.766,-51.741 23.8,52.775 c 0,0 13.482,-30.873 18.626,-67.261 5.144,-36.388 0,-77.608 0,-77.608 0,0 34.525,-7.544 62.088,2.068 27.562,9.612 41.39,26.905 41.39,26.905 0,0 -14.035,19.989 -27.889,64.065 C 15.218,-72.468 0,-38.014 0,0"
             style="fill:#000000;fill-opacity:1;fill-rule:nonzero;stroke:none"
             id="path3368"
             inkscape:connector-curvature="0" /></g><g
           id="g3370"
           transform="translate(402.7383,146.4883)"><path
             d="m 0,0 c -77.008,0 -139.436,62.431 -139.436,139.44 0,77.008 62.428,139.436 139.436,139.436 3.486,0 6.941,-0.132 10.364,-0.383 -6.687,0.928 -13.513,1.419 -20.456,1.419 -81.438,0 -147.455,-66.019 -147.455,-147.456 0,-81.438 66.017,-147.457 147.455,-147.457 70.293,0 129.09,49.189 143.868,115.022 C 116.768,42.209 63.315,0 0,0"
             style="fill:#000000;fill-opacity:1;fill-rule:nonzero;stroke:none"
             id="path3372"
             inkscape:connector-curvature="0" /></g><g
           id="g3374"
           transform="translate(389.6738,327.0596)"><path
             d="m 0,0 c -3.623,-13.084 -26.646,-20.051 -26.646,-20.051 0,0 -1.296,-6.464 6.077,-13.836 7.372,-7.373 20.181,-4.66 26.39,2.068 4.838,5.242 4.956,12.936 2.977,17.462 -1.814,4.137 -5.824,8.406 -5.824,8.406 0,0 1.813,26.388 22.249,27.94 C 79.681,26.125 17.979,64.932 0,0"
             style="fill:#000000;fill-opacity:1;fill-rule:nonzero;stroke:none"
             id="path3376"
             inkscape:connector-curvature="0" /></g><g
           id="g3378"
           transform="translate(338.9673,303.2598)"><path
             d="m 0,0 c 0,0 -13.324,-3.103 -25.223,4.14 -40.39,24.585 -51.108,-8.907 -24.834,0.257 11.122,3.881 20.178,-1.033 20.178,-1.033 0,0 -6.264,-7.291 -1.81,-18.108 3.619,-8.797 15.58,-9.645 22.506,-7.375 7.501,2.458 9.95,8.409 10.348,13.842 C 1.552,-2.975 0,0 0,0"
             style="fill:#000000;fill-opacity:1;fill-rule:nonzero;stroke:none"
             id="path3380"
             inkscape:connector-curvature="0" /></g><g
           id="g3382"
           transform="translate(413.5371,218.1797)"><path
             d="M 0,0 C 50.64,27.958 48.772,80.607 64.464,69.406 77.891,59.819 43.338,10.217 -0.074,-7.269 c -42.567,-17.148 -76.339,-8.915 -76.339,-8.915 0,0 34.612,-6.893 76.413,16.184"
             style="fill:#000000;fill-opacity:1;fill-rule:nonzero;stroke:none"
             id="path3384"
             inkscape:connector-curvature="0" /></g></g></g></g></svg>